<svg width="47" height="50" viewBox="0 0 47 50" fill="none" xmlns="http://www.w3.org/2000/svg">
<path fill-rule="evenodd" clip-rule="evenodd" d="M7.17402 0.122403C5.26205 4.03183 6.16363 7.76442 6.85342 9.14203C6.72174 9.31755 6.57276 9.50336 6.41233 9.70344C5.20212 11.2127 3.34043 13.5344 3.34043 18.3876C3.34042 22.7474 3.8806 33.758 18.9204 35.0287C18.3024 35.6097 17.0091 37.3314 16.78 39.5708C16.1223 40.0274 9.63317 42.6922 6.52125 36.4061C6.4625 36.2894 6.40436 36.1891 6.3179 36.0742L6.31781 36.0741C5.51049 35.001 4.49146 33.6466 1.57103 33.2755C1.17177 33.2085 0 33.0805 0 33.796C0 34.3641 0.791434 35.0868 1.33034 35.3447C3.85162 36.3442 5.45837 41.0879 5.42328 41.0182C5.82262 42.017 8.26965 45.7187 16.618 44.3268L16.659 47.5213C16.7 50.716 33.7391 50.9346 33.7391 47.5213C33.8778 42.6433 33.9912 36.889 31.373 35.0439C45.7863 33.8266 47 23.5252 47 18.5841C47 14.5757 45.2878 10.5009 43.4721 9.1373C45.4737 5.10192 43.9763 1.92809 43.1957 0.273588L43.1946 0.271325C43.1698 0.2189 43.1459 0.168003 43.1227 0.118655C43.2562 -0.0180499 40.0231 -0.685092 33.7865 3.62568C26.7294 1.53918 19.4004 2.7563 16.618 3.62568C13.9882 1.30744 8.27059 -0.4239 7.17402 0.122403Z"/>
</svg>
