<svg role="img" viewBox="0 0 60 50" xmlns="http://www.w3.org/2000/svg">
    <title>Twitter</title>
    <path d="M53.8574 12.4474C53.894 12.9898 53.894 13.5323 53.894 14.0798C53.894 30.7612 41.5113 50 18.869 50V49.99C12.1804 50 5.63071 48.0351 0 44.3304C0.972578 44.4504 1.95003 44.5103 2.92992 44.5128C8.47288 44.5178 13.8574 42.6105 18.2182 39.0982C12.9506 38.9957 8.33151 35.4734 6.71786 30.3312C8.56307 30.6962 10.4644 30.6212 12.2754 30.1138C6.5326 28.9238 2.40098 23.7492 2.40098 17.7395C2.40098 17.6845 2.40098 17.632 2.40098 17.5795C4.11213 18.557 6.02803 19.0995 7.98781 19.1594C2.57892 15.4522 0.911639 8.07265 4.17794 2.30301C10.4278 10.19 19.649 14.9847 29.5478 15.4922C28.5558 11.1075 29.911 6.51275 33.1091 3.43044C38.067 -1.34926 45.8647 -1.10427 50.5253 3.97791C53.2821 3.42044 55.9244 2.38301 58.3425 0.913099C57.4235 3.83541 55.5003 6.31776 52.9311 7.89516C55.3711 7.60018 57.755 6.93022 60 5.90778C58.3474 8.44762 56.2657 10.66 53.8574 12.4474Z"/>
</svg>
