<?xml version="1.0" standalone="no"?>
<!DOCTYPE svg PUBLIC "-//W3C//DTD SVG 20010904//EN"
 "http://www.w3.org/TR/2001/REC-SVG-20010904/DTD/svg10.dtd">
<svg version="1.0" xmlns="http://www.w3.org/2000/svg"
 width="512.000000pt" height="512.000000pt" viewBox="0 0 512.000000 512.000000"
 preserveAspectRatio="xMidYMid meet">
<metadata>
Created by potrace 1.14, written by Peter Selinger 2001-2017
</metadata>
<g transform="translate(0.000000,512.000000) scale(0.100000,-0.100000)"
fill="#000000" stroke="none">
<path d="M1882 4239 c-23 -12 -63 -44 -88 -73 -63 -71 -155 -263 -214 -445
-73 -224 -189 -783 -255 -1226 -15 -99 -30 -184 -34 -188 -4 -4 -60 -13 -124
-19 -227 -23 -601 28 -623 85 -3 8 6 113 20 233 54 466 92 990 83 1134 -9 152
-75 267 -182 316 -60 28 -91 30 -104 6 -5 -10 -28 -108 -50 -217 -105 -518
-240 -1439 -288 -1955 -23 -250 -23 -682 -1 -797 16 -84 56 -183 85 -215 19
-21 62 -24 85 -5 89 72 179 416 253 972 15 110 28 201 29 203 2 1 23 -7 48
-18 97 -42 170 -52 463 -57 l280 -5 1 -187 c1 -167 4 -196 27 -284 41 -156
111 -268 196 -315 l41 -23 24 24 c52 52 98 288 127 659 l12 157 96 36 c53 21
123 48 157 60 l61 24 32 -80 c63 -153 161 -273 281 -342 186 -107 426 -94 643
34 84 49 244 205 302 294 90 137 159 309 194 481 l17 86 85 -113 c46 -62 88
-117 93 -124 5 -7 -6 -48 -27 -107 -70 -186 -111 -358 -86 -358 14 0 183 168
245 244 l40 48 69 -53 c85 -64 227 -133 320 -155 89 -21 239 -21 328 0 160 37
306 123 438 255 105 104 168 213 97 167 -41 -27 -203 -75 -324 -98 -96 -17
-157 -21 -314 -21 -212 0 -292 13 -397 67 -82 41 -82 42 -31 154 104 223 177
473 148 507 -18 22 -26 19 -77 -27 -58 -55 -152 -174 -238 -306 -79 -121 -65
-123 -179 28 -148 197 -250 397 -286 557 -20 91 -25 103 -46 103 -34 0 -39
-49 -40 -360 -1 -320 -6 -368 -52 -500 -89 -250 -252 -443 -457 -541 -253
-121 -461 -32 -539 230 -9 30 -13 58 -9 61 5 3 44 33 88 65 259 194 418 445
442 700 l6 63 -34 18 c-44 22 -149 29 -220 15 -121 -25 -242 -105 -325 -214
-59 -78 -126 -218 -155 -325 l-23 -84 -95 -48 c-111 -55 -177 -78 -191 -64
-15 16 72 797 120 1074 38 214 127 500 176 567 31 40 55 48 93 28 43 -22 67
-75 86 -191 10 -54 23 -110 30 -124 13 -24 13 -23 20 24 11 73 -2 196 -31 288
-21 66 -34 89 -72 127 -88 88 -183 113 -270 70z m618 -1365 c0 -10 -95 -126
-129 -158 -17 -16 -34 -26 -38 -22 -14 14 53 120 96 154 39 29 71 41 71 26z"/>
</g>
</svg>
